<?xml version="1.0" encoding="UTF-8" standalone="no"?>
<svg xmlns:dc="http://purl.org/dc/elements/1.1/" xmlns:cc="http://creativecommons.org/ns#" xmlns:rdf="http://www.w3.org/1999/02/22-rdf-syntax-ns#" xmlns:svg="http://www.w3.org/2000/svg" xmlns="http://www.w3.org/2000/svg" version="1.1" id="svg2" viewBox="0 0 500.00001 210" height="59.266666mm" width="141.11111mm">
  <defs id="defs4"/>
  <metadata id="metadata7">
    <rdf:RDF>
      <cc:Work rdf:about="">
        <dc:format>image/svg+xml</dc:format>
        <dc:type rdf:resource="http://purl.org/dc/dcmitype/StillImage"/>
        <dc:title/>
      </cc:Work>
    </rdf:RDF>
  </metadata>
  <g transform="translate(-121.92818,-229.63036)" id="layer1">
    <path id="path4147" d="m 121.92818,413.92648 0,-25.61063 14.42364,0.0221 c 11.8745,0.0182 15.1392,0.35078 18.47239,1.88204 8.9434,4.10856 12.99514,11.5239 12.95323,23.70654 -0.0318,9.23554 -1.78366,14.33856 -6.67837,19.45328 -5.21173,5.44595 -8.03785,6.15732 -24.46169,6.15732 l -14.7092,0 0,-25.61064 z m 27.81233,15.39479 c 4.50066,-2.03472 7.02181,-7.38389 6.99603,-14.84356 -0.0418,-12.09601 -4.97717,-17.11253 -16.84207,-17.11905 l -6.83225,-0.004 0,16.57158 0,16.57159 7.03767,0 c 3.87072,0 8.209,-0.52956 9.64062,-1.17679 z m 26.84568,-15.39479 0,-25.61063 15.72139,0 c 16.98577,0 21.11968,0.88431 24.15275,5.16669 5.866,8.28219 3.19342,19.44668 -5.86008,24.47997 -1.6824,0.93533 -1.31032,1.86594 4.34099,10.85723 3.39961,5.40881 6.18111,10.05548 6.18111,10.32592 0,0.27043 -2.59077,0.35615 -5.75727,0.19049 l -5.75727,-0.3012 -5.98205,-9.84331 -5.98204,-9.84332 -4.7087,0.3021 -4.7087,0.30209 -0.28969,9.79231 -0.2897,9.7923 -5.53037,0 -5.53037,0 0,-25.61064 z m 30.36556,-4.51952 c 2.81371,-2.79189 2.60711,-7.5478 -0.46008,-10.5912 -2.22608,-2.20883 -3.33135,-2.4652 -10.62795,-2.4652 l -8.14349,0 0,7.53254 0,7.53254 8.60358,0 c 7.254,0 8.92113,-0.3151 10.62794,-2.00868 z m 20.24902,29.3769 c 0.003,-0.41429 4.23989,-11.82608 9.41548,-25.35954 l 9.41018,-24.6063 6.07952,-0.29402 6.07951,-0.29401 9.68357,25.65356 9.68357,25.65357 -5.89532,0 -5.89533,0 -1.75484,-5.52386 -1.75485,-5.52387 -10.2335,0 -10.23349,0 -1.89229,5.52387 -1.89228,5.52386 -5.40262,0 c -2.97144,0 -5.40023,-0.33896 -5.39731,-0.75326 z m 31.37245,-19.38362 c 0,-1.48471 -6.27897,-19.16285 -6.66888,-18.77595 -0.58319,0.57865 -6.48953,17.63975 -6.48953,18.74567 0,0.66548 2.54281,1.08473 6.5792,1.08473 3.91978,0 6.57921,-0.42623 6.57921,-1.05445 z m 25.30464,19.62833 c 0,-0.27969 3.91164,-6.33507 8.69256,-13.45637 l 8.69256,-12.94783 -8.20646,-12.15426 -8.20645,-12.15426 6.503,0 6.50301,0 2.79104,4.77061 c 1.53505,2.62384 3.82601,6.30092 5.09098,8.17129 l 2.29996,3.40069 5.22836,-8.17129 5.22835,-8.1713 6.03154,0 c 4.54954,0 5.84768,0.30848 5.28325,1.25542 -0.41155,0.69048 -3.93047,5.98514 -7.81982,11.76591 -3.88934,5.78076 -7.07153,10.99208 -7.07153,11.58072 0,0.58864 3.71978,6.57947 8.26616,13.31297 4.54641,6.73348 8.2662,12.48201 8.2662,12.77448 0,0.29248 -2.84677,0.53102 -6.32616,0.53011 l -6.32616,-0.002 -5.39526,-8.53522 c -2.9674,-4.69437 -5.70031,-8.51307 -6.07311,-8.48598 -0.37283,0.0271 -3.11262,3.86869 -6.08846,8.53688 l -5.41062,8.48799 -5.97648,0 c -3.28705,0 -5.97646,-0.22885 -5.97646,-0.50855 z m 55.67019,-25.10209 0,-25.61063 5.56702,0 5.56702,0 0,21.09111 0,21.09111 12.65232,0 12.65232,0 0,4.51952 0,4.51953 -18.21934,0 -18.21934,0 0,-25.61064 z m 45.54835,0 0,-25.61063 7.98312,0 7.98313,0 5.08755,14.814 c 8.23297,23.9729 6.67434,23.59238 13.37014,3.26409 l 5.78923,-17.57592 8.2346,-0.2917 8.23461,-0.2917 0,25.65125 0,25.65125 -5.06093,0 -5.06093,0 0,-18.24549 c 0,-10.03501 -0.34161,-17.92077 -0.75913,-17.5239 -0.41754,0.39687 -3.49204,8.49436 -6.83226,17.9944 l -6.07311,17.27282 -4.60041,0.29771 -4.60042,0.2977 -5.90999,-16.86929 c -3.25052,-9.27811 -6.29065,-17.54723 -6.75591,-18.3758 -0.47845,-0.8521 -0.85926,6.45543 -0.87667,16.82267 l -0.0308,18.32918 -5.06093,0 -5.06092,0 0,-25.61064 z m 64.20171,23.85304 c 0.31375,-0.96667 4.62887,-12.37847 9.58916,-25.35955 l 9.01872,-23.60195 6.04234,-0.29577 c 5.0372,-0.24657 6.16326,0.004 6.76923,1.5065 0.39979,0.99126 4.28899,11.29328 8.64267,22.8934 4.35367,11.60011 8.3989,22.33398 8.98939,23.85304 l 1.07362,2.76193 -5.86321,0 -5.86322,0 -1.76579,-5.55831 -1.76578,-5.55832 -10.30229,0.28554 -10.30228,0.28553 -1.90807,5.27278 -1.90807,5.27278 -5.50843,0 c -4.78866,0 -5.4339,-0.22967 -4.93799,-1.7576 z m 30.94371,-18.65544 c 0,-1.12107 -3.70005,-12.71816 -5.66373,-17.75183 -0.50871,-1.30404 -7.49468,15.66234 -7.49468,18.20187 0,0.48431 2.96065,0.88057 6.57921,0.88057 4.7868,0 6.5792,-0.3625 6.5792,-1.33061 z m 26.31682,-5.1976 0,-25.61063 5.56702,0 5.56702,0 0,25.61063 0,25.61064 -5.56702,0 -5.56702,0 0,-25.61064 z m 21.2559,0 0,-25.61063 19.73761,0 19.73762,0 0,4.51953 0,4.51952 -14.2211,0 -14.22112,0 0.30357,5.77495 0.30355,5.77494 12.90536,0.28109 12.90537,0.28109 0,3.98735 0,3.98735 -13.15841,0 -13.15841,0 0,6.50062 0,6.50063 14.42364,0.27865 14.42364,0.27867 0.31125,4.26844 0.31125,4.26844 -20.30191,0 -20.30191,0 0,-25.61064 z m 50.60927,0 0,-25.61063 16.04528,0 c 14.97619,0 16.26757,0.15057 19.38171,2.25976 6.0877,4.1232 8.57254,11.78044 6.0082,18.51489 -1.27676,3.35305 -5.8592,8.35117 -7.65661,8.35117 -2.69652,0 -2.05672,1.90468 3.72447,11.08759 3.28991,5.22574 5.99049,9.84031 6.00128,10.2546 0.0108,0.4143 -2.45486,0.75326 -5.47924,0.75326 l -5.49886,0 -5.95,-9.7923 -5.95,-9.79231 -4.7461,-0.30611 -4.7461,-0.3061 0,10.09841 0,10.09841 -5.56702,0 -5.56702,0 0,-25.61064 z m 29.35338,-4.51952 c 2.38437,-2.36589 2.68336,-7.76087 0.5877,-10.60468 -1.18674,-1.61039 -2.94766,-2.01117 -10.12185,-2.3037 l -8.68519,-0.35414 0,7.6356 0,7.6356 8.09748,0 c 6.7479,0 8.43488,-0.33477 10.12186,-2.00868 z M 232.25639,392.3332 c 0,-4.01735 0,-4.01735 4.04874,-4.01735 4.60894,0 4.54574,-0.1114 2.58212,4.55178 -1.13015,2.68384 -2.05905,3.48293 -4.04875,3.48293 -2.33767,0 -2.58211,-0.38031 -2.58211,-4.01736 z m 34.41431,3.63784 c 0,-0.20873 -0.68934,-2.01654 -1.53186,-4.01735 l -1.53186,-3.63784 4.56842,0 4.56842,0 0,4.01735 c 0,3.79418 -0.16872,4.01736 -3.03656,4.01736 -1.67011,0 -3.03656,-0.17078 -3.03656,-0.37952 z m 42.51179,-66.82422 0,-21.17805 18.72543,0 18.72543,0 0,9.17913 0,9.17914 11.38709,-0.57537 c 6.26289,-0.31646 13.1494,-1.14978 15.30335,-1.85183 6.01846,-1.96163 13.03182,-8.85201 16.41933,-16.13146 2.7183,-5.84138 2.94268,-7.21568 2.91894,-17.87771 -0.032,-14.35091 -2.28401,-20.96774 -9.61071,-28.23765 -6.21891,-6.1707 -11.95204,-7.91853 -25.97377,-7.91853 l -10.44423,0 0,8.53687 0,8.53688 -18.72543,0 -18.72543,0 0,-20.58894 0,-20.58894 35.17344,0.0175 c 39.54438,0.0196 43.97127,0.53281 56.60408,6.56184 14.32033,6.8344 24.77281,20.29919 28.19393,36.31919 2.14682,10.05284 1.91417,26.44572 -0.50871,35.84569 -5.21407,20.22873 -19.27881,33.87188 -40.60155,39.38448 -5.28602,1.36659 -13.20253,1.7602 -42.67556,2.12187 l -36.18563,0.44402 0,-21.17806 z" style="fill:#000000"/>
  </g>
</svg>