<?xml version="1.0" encoding="UTF-8"?>
<!-- Generator: Adobe Illustrator 14.0.0, SVG Export Plug-In . SVG Version: 6.00 Build 43363)  -->
<!DOCTYPE svg PUBLIC "-//W3C//DTD SVG 1.1//EN" "http://www.w3.org/Graphics/SVG/1.1/DTD/svg11.dtd">
<svg version="1.1" id="Ebene_1" xmlns="http://www.w3.org/2000/svg" xmlns:xlink="http://www.w3.org/1999/xlink" x="0px" y="0px" width="419.527px" height="192.756px" viewBox="0 0 419.527 192.756" enable-background="new 0 0 419.527 192.756" xml:space="preserve">
<g>
	<path fill="#8E8E8E" d="M70.866,141.732c39.138,0,70.866-31.729,70.866-70.866C141.732,31.728,110.004,0,70.866,0   S0,31.728,0,70.866C0,110.004,31.728,141.732,70.866,141.732L70.866,141.732z"/>
	<path fill="#FFFFFF" d="M85.683,69.687h17.505v38.212c0,5.612,0.836,9.65,2.492,12.158c1.671,2.49,4.336,3.737,7.995,3.737   c3.753,0,6.592-1.341,8.5-4.022c1.908-2.68,2.87-6.639,2.87-11.873V69.687h16.685v38.212c0,9.667-2.334,16.921-7.002,21.745   c-4.668,4.811-11.685,7.224-21.037,7.224c-9.273,0-16.259-2.428-20.958-7.271c-4.7-4.856-7.05-12.096-7.05-21.698V69.687   L85.683,69.687z"/>
	<path fill="#8E8E8E" d="M158.888,81.152v16.827h6.15c3.785,0,6.624-0.678,8.516-2.05s2.839-3.438,2.839-6.183   c0-2.949-1.057-5.125-3.17-6.513c-2.098-1.388-5.441-2.082-9.999-2.082H158.888L158.888,81.152z M141.745,69.609h26.1   c8.69,0,15.14,1.403,19.335,4.227c4.21,2.823,6.308,7.112,6.308,12.869c0,4.258-1.104,7.743-3.327,10.487   c-2.224,2.743-5.426,4.572-9.605,5.504c3.438,1.262,6.214,4.841,8.311,10.755v0.048l7.854,21.762h-18.247l-5.771-17.977   c-0.931-2.887-2.193-4.89-3.785-6.009c-1.609-1.104-4.101-1.656-7.491-1.656h-2.539v25.642h-17.143V69.609L141.745,69.609z"/>
</g>
</svg>
