<?xml version="1.0" encoding="utf-8"?>
<!-- Generator: Adobe Illustrator 14.0.0, SVG Export Plug-In . SVG Version: 6.00 Build 43363)  -->
<!DOCTYPE svg PUBLIC "-//W3C//DTD SVG 1.1//EN" "http://www.w3.org/Graphics/SVG/1.1/DTD/svg11.dtd">
<svg version="1.1" id="Ebene_1" xmlns="http://www.w3.org/2000/svg" xmlns:xlink="http://www.w3.org/1999/xlink" x="0px" y="0px"
	 width="419.527px" height="192.756px" viewBox="0 0 419.527 192.756" enable-background="new 0 0 419.527 192.756"
	 xml:space="preserve">
<g>
	<path fill="#8E8E8E" d="M70.866,141.732c39.138,0,70.866-31.729,70.866-70.866C141.732,31.728,110.004,0,70.866,0
		S0,31.728,0,70.866C0,110.004,31.728,141.732,70.866,141.732L70.866,141.732z"/>
	<path fill="#FFFFFF" d="M85.683,69.687h17.505v38.212c0,5.612,0.836,9.65,2.492,12.158c1.671,2.49,4.336,3.737,7.995,3.737
		c3.753,0,6.592-1.341,8.5-4.022c1.908-2.68,2.87-6.639,2.87-11.873V69.687h16.685v38.212c0,9.667-2.334,16.921-7.002,21.745
		c-4.668,4.811-11.685,7.224-21.037,7.224c-9.273,0-16.259-2.428-20.958-7.271c-4.7-4.856-7.05-12.096-7.05-21.698V69.687
		L85.683,69.687z"/>
	<path fill="#8E8E8E" d="M158.888,81.152v16.827h6.15c3.785,0,6.624-0.678,8.516-2.05s2.839-3.438,2.839-6.183
		c0-2.949-1.057-5.125-3.17-6.513c-2.098-1.388-5.441-2.082-9.999-2.082H158.888L158.888,81.152z M141.745,69.609h26.1
		c8.69,0,15.14,1.403,19.335,4.227c4.21,2.823,6.308,7.112,6.308,12.869c0,4.258-1.104,7.743-3.327,10.487
		c-2.224,2.743-5.426,4.572-9.605,5.504c3.438,1.262,6.214,4.841,8.311,10.755v0.048l7.854,21.762h-18.247l-5.771-17.977
		c-0.931-2.887-2.193-4.89-3.785-6.009c-1.609-1.104-4.101-1.656-7.491-1.656h-2.539v25.642h-17.143V69.609L141.745,69.609z"/>
	<path fill="#8E8E8E" d="M141.638,178.297c0,2.466,0.578,4.33,1.734,5.591c1.155,1.263,2.868,1.893,5.139,1.893
		c2.311,0,4.046-0.637,5.206-1.91c1.16-1.274,1.74-3.18,1.74-5.719V168.08h-3.223v10.047c0,1.652-0.309,2.899-0.928,3.741
		c-0.618,0.842-1.534,1.263-2.746,1.263c-1.205,0-2.09-0.392-2.655-1.178c-0.566-0.785-0.849-2.021-0.849-3.704V168.08h-3.418
		V178.297L141.638,178.297z M170.19,173.811c-0.765-0.923-1.892-1.385-3.381-1.385c-1.001,0-1.882,0.223-2.643,0.665
		c-0.761,0.444-1.381,1.097-1.861,1.959v-2.294h-2.967v12.67h3.247v-6.298c0-1.229,0.269-2.2,0.806-2.912
		c0.537-0.712,1.261-1.067,2.173-1.067c0.854,0,1.483,0.278,1.886,0.836c0.403,0.558,0.604,1.422,0.604,2.594v6.848h3.284v-7.544
		C171.338,176.092,170.955,174.735,170.19,173.811L170.19,173.811z M174.841,185.426h3.247v-12.67h-3.247V185.426L174.841,185.426z
		 M174.841,170.229h3.247v-3.149h-3.247V170.229L174.841,170.229z M184.753,185.426h3.748l4.602-12.67h-3.247l-3.101,9.741
		l-3.027-9.741h-3.491L184.753,185.426L184.753,185.426z M204.718,174.141c-1.022-1.143-2.452-1.715-4.291-1.715
		c-1.864,0-3.375,0.594-4.535,1.782c-1.16,1.188-1.74,2.743-1.74,4.663c0,2.157,0.596,3.843,1.789,5.06
		c1.192,1.218,2.846,1.825,4.962,1.825c0.813,0,1.579-0.063,2.295-0.188c0.716-0.128,1.383-0.316,2.002-0.568v-2.502
		c-0.578,0.309-1.178,0.541-1.801,0.695c-0.622,0.154-1.263,0.231-1.922,0.231c-1.205,0-2.175-0.307-2.912-0.921
		c-0.736-0.615-1.149-1.455-1.239-2.521h8.923v-1.025C206.249,176.89,205.739,175.284,204.718,174.141L204.718,174.141z
		 M197.326,177.956c0.122-1.075,0.456-1.911,1.001-2.509c0.545-0.599,1.237-0.897,2.075-0.897c0.822,0,1.49,0.299,2.002,0.897
		c0.513,0.598,0.814,1.434,0.904,2.509H197.326L197.326,177.956z M215.953,172.481c-0.178-0.021-0.342-0.031-0.486-0.031
		c-0.848,0-1.582,0.236-2.205,0.708c-0.622,0.472-1.137,1.18-1.544,2.124v-2.526h-2.917v12.67h3.247v-5.92
		c0-1.359,0.28-2.394,0.842-3.106s1.38-1.068,2.454-1.068c0.203,0,0.398,0.015,0.586,0.043c0.188,0.029,0.365,0.071,0.537,0.128
		l0.121-2.93C216.346,172.532,216.133,172.501,215.953,172.481L215.953,172.481z M224.596,172.572
		c-0.496-0.098-0.947-0.146-1.355-0.146c-1.529,0-2.764,0.351-3.703,1.05c-0.939,0.7-1.41,1.607-1.41,2.723
		c0,0.757,0.219,1.399,0.658,1.929s1.287,1.102,2.539,1.721c0.008,0.008,0.029,0.021,0.063,0.036
		c1.676,0.839,2.514,1.571,2.514,2.198c0,0.382-0.176,0.681-0.531,0.896c-0.354,0.217-0.852,0.323-1.496,0.323
		c-0.617,0-1.242-0.075-1.873-0.226s-1.248-0.376-1.85-0.677l-0.182,2.502c0.594,0.212,1.223,0.373,1.885,0.482
		c0.664,0.109,1.346,0.164,2.045,0.164c1.66,0,2.971-0.352,3.93-1.056c0.961-0.703,1.441-1.658,1.441-2.862
		c0-0.854-0.256-1.573-0.77-2.155c-0.512-0.581-1.447-1.173-2.807-1.775c-0.074-0.032-0.184-0.081-0.33-0.146
		c-1.326-0.586-1.99-1.16-1.99-1.721c0-0.375,0.156-0.661,0.471-0.861c0.313-0.199,0.764-0.299,1.35-0.299
		c0.537,0,1.078,0.073,1.623,0.22s1.098,0.366,1.66,0.659l0.244-2.404C225.801,172.861,225.094,172.67,224.596,172.572
		L224.596,172.572z M230.029,185.426h3.246v-12.67h-3.246V185.426L230.029,185.426z M230.029,170.229h3.246v-3.149h-3.246V170.229
		L230.029,170.229z M238.244,169.679v3.077h-2.648v2.393h2.502v5.75c0,1.725,0.324,2.958,0.977,3.697
		c0.65,0.741,1.725,1.111,3.221,1.111c0.375,0,0.754-0.024,1.137-0.073s0.752-0.122,1.111-0.22l-0.049-2.283
		c-0.236,0.074-0.461,0.129-0.672,0.165c-0.211,0.037-0.404,0.055-0.574,0.055c-0.668,0-1.146-0.205-1.439-0.615
		c-0.293-0.411-0.439-1.09-0.439-2.033v-5.554h3.051v-2.393h-3.051v-4.126L238.244,169.679L238.244,169.679z M254.467,179.372v0.683
		c0,1.001-0.289,1.817-0.867,2.448s-1.314,0.946-2.209,0.946c-0.619,0-1.119-0.173-1.502-0.52c-0.383-0.346-0.574-0.795-0.574-1.349
		c0-0.732,0.336-1.283,1.008-1.654c0.672-0.37,1.67-0.555,2.996-0.555H254.467L254.467,179.372z M256.279,173.811
		c-0.875-0.923-2.264-1.385-4.168-1.385c-0.742,0-1.477,0.073-2.211,0.22c-0.732,0.146-1.477,0.374-2.234,0.684l0.051,2.32
		c0.643-0.343,1.268-0.6,1.873-0.77c0.605-0.171,1.189-0.257,1.752-0.257c0.992,0,1.762,0.238,2.307,0.714s0.818,1.146,0.818,2.008
		v0.184h-1.674c-2.221,0-3.889,0.353-5.004,1.056c-1.115,0.704-1.672,1.76-1.672,3.168c0,1.18,0.391,2.142,1.172,2.887
		s1.807,1.117,3.076,1.117c0.887,0,1.693-0.202,2.416-0.604c0.725-0.403,1.352-0.995,1.881-1.776l0.049,2.05h2.881V178.2
		C257.592,176.198,257.154,174.735,256.279,173.811L256.279,173.811z M253.074,170.326h2.516v-2.771h-2.516V170.326L253.074,170.326
		z M248.852,170.326h2.514v-2.771h-2.514V170.326L248.852,170.326z M262.365,169.679v3.077h-2.648v2.393h2.502v5.75
		c0,1.725,0.324,2.958,0.977,3.697c0.65,0.741,1.725,1.111,3.221,1.111c0.375,0,0.754-0.024,1.137-0.073s0.752-0.122,1.109-0.22
		l-0.047-2.283c-0.238,0.074-0.461,0.129-0.672,0.165c-0.213,0.037-0.404,0.055-0.574,0.055c-0.668,0-1.146-0.205-1.439-0.615
		c-0.293-0.411-0.439-1.09-0.439-2.033v-5.554h3.051v-2.393h-3.051v-4.126L262.365,169.679L262.365,169.679z M283.482,170.497
		c1.285,0,2.227,0.21,2.826,0.629c0.598,0.419,0.896,1.076,0.896,1.971c0,0.839-0.301,1.486-0.902,1.941
		c-0.604,0.456-1.457,0.684-2.564,0.684h-1.758v-5.225H283.482L283.482,170.497z M278.611,185.426h3.369v-7.274h1.074
		c0.863,0,1.514,0.148,1.953,0.445s0.799,0.824,1.074,1.58l1.953,5.249h3.602l-2.404-6.03c-0.375-0.936-0.715-1.565-1.02-1.892
		c-0.305-0.325-0.707-0.569-1.203-0.732c1.164-0.244,2.059-0.73,2.686-1.459c0.627-0.728,0.941-1.649,0.941-2.765
		c0-1.489-0.529-2.605-1.588-3.351c-1.059-0.744-2.645-1.117-4.762-1.117h-5.676V185.426L278.611,185.426z M303.52,174.141
		c-1.021-1.143-2.451-1.715-4.291-1.715c-1.863,0-3.375,0.594-4.533,1.782c-1.16,1.188-1.74,2.743-1.74,4.663
		c0,2.157,0.596,3.843,1.787,5.06c1.193,1.218,2.846,1.825,4.963,1.825c0.814,0,1.578-0.063,2.295-0.188
		c0.717-0.128,1.385-0.316,2.002-0.568v-2.502c-0.578,0.309-1.178,0.541-1.801,0.695s-1.264,0.231-1.922,0.231
		c-1.205,0-2.176-0.307-2.912-0.921c-0.736-0.615-1.148-1.455-1.238-2.521h8.924v-1.025
		C305.053,176.89,304.541,175.284,303.52,174.141L303.52,174.141z M296.129,177.956c0.121-1.075,0.455-1.911,1-2.509
		c0.545-0.599,1.238-0.897,2.076-0.897c0.822,0,1.488,0.299,2.002,0.897c0.514,0.598,0.814,1.434,0.902,2.509H296.129
		L296.129,177.956z M315.525,175.996c0.561,0.729,0.842,1.724,0.842,2.985c0,1.14-0.291,2.068-0.873,2.788
		c-0.582,0.722-1.32,1.081-2.215,1.081c-0.92,0-1.654-0.363-2.203-1.093c-0.549-0.728-0.824-1.707-0.824-2.936
		c0-1.18,0.275-2.128,0.824-2.845c0.549-0.716,1.271-1.073,2.166-1.073C314.203,174.904,314.963,175.268,315.525,175.996
		L315.525,175.996z M314.77,173.042c-0.727-0.41-1.564-0.616-2.516-0.616c-1.619,0-2.934,0.606-3.943,1.819
		c-1.008,1.212-1.514,2.791-1.514,4.736c0,1.921,0.504,3.467,1.508,4.639c1.006,1.172,2.33,1.758,3.975,1.758
		c0.861,0,1.639-0.192,2.33-0.574c0.693-0.383,1.322-0.977,1.893-1.782v1.38c0,1.276-0.367,2.276-1.105,2.997
		c-0.736,0.72-1.758,1.079-3.07,1.079c-0.625,0-1.271-0.087-1.939-0.262s-1.34-0.43-2.016-0.763l-0.193,2.624
		c0.715,0.261,1.445,0.458,2.189,0.592c0.746,0.134,1.496,0.202,2.252,0.202c2.369,0,4.137-0.578,5.305-1.734
		c1.168-1.154,1.752-2.909,1.752-5.261v-11.12h-3.027v2.172C316.119,174.082,315.492,173.453,314.77,173.042L314.77,173.042z
		 M332.988,174.141c-1.021-1.143-2.453-1.715-4.291-1.715c-1.865,0-3.375,0.594-4.535,1.782s-1.74,2.743-1.74,4.663
		c0,2.157,0.598,3.843,1.789,5.06c1.191,1.218,2.846,1.825,4.961,1.825c0.814,0,1.58-0.063,2.297-0.188
		c0.715-0.128,1.383-0.316,2.002-0.568v-2.502c-0.578,0.309-1.18,0.541-1.803,0.695c-0.621,0.154-1.262,0.231-1.922,0.231
		c-1.205,0-2.174-0.307-2.912-0.921c-0.734-0.615-1.148-1.455-1.238-2.521h8.924v-1.025
		C334.52,176.89,334.01,175.284,332.988,174.141L332.988,174.141z M325.596,177.956c0.123-1.075,0.457-1.911,1.002-2.509
		c0.545-0.599,1.236-0.897,2.074-0.897c0.822,0,1.49,0.299,2.002,0.897c0.514,0.598,0.814,1.434,0.904,2.509H325.596
		L325.596,177.956z M347.922,173.811c-0.764-0.923-1.891-1.385-3.381-1.385c-1.002,0-1.883,0.223-2.643,0.665
		c-0.76,0.444-1.381,1.097-1.861,1.959v-2.294h-2.967v12.67h3.248v-6.298c0-1.229,0.268-2.2,0.805-2.912s1.262-1.067,2.172-1.067
		c0.855,0,1.484,0.278,1.887,0.836s0.605,1.422,0.605,2.594v6.848h3.283v-7.544C349.07,176.092,348.688,174.735,347.922,173.811
		L347.922,173.811z M358.543,172.572c-0.498-0.098-0.947-0.146-1.355-0.146c-1.529,0-2.766,0.351-3.705,1.05
		c-0.939,0.7-1.41,1.607-1.41,2.723c0,0.757,0.221,1.399,0.66,1.929s1.285,1.102,2.539,1.721c0.008,0.008,0.027,0.021,0.061,0.036
		c1.678,0.839,2.516,1.571,2.516,2.198c0,0.382-0.178,0.681-0.531,0.896c-0.355,0.217-0.854,0.323-1.496,0.323
		c-0.619,0-1.244-0.075-1.873-0.226c-0.631-0.15-1.248-0.376-1.85-0.677l-0.184,2.502c0.594,0.212,1.223,0.373,1.885,0.482
		c0.664,0.109,1.346,0.164,2.047,0.164c1.658,0,2.969-0.352,3.93-1.056c0.961-0.703,1.441-1.658,1.441-2.862
		c0-0.854-0.258-1.573-0.77-2.155c-0.514-0.581-1.449-1.173-2.809-1.775c-0.072-0.032-0.184-0.081-0.328-0.146
		c-1.328-0.586-1.99-1.16-1.99-1.721c0-0.375,0.156-0.661,0.469-0.861c0.314-0.199,0.764-0.299,1.35-0.299
		c0.537,0,1.078,0.073,1.623,0.22c0.547,0.146,1.1,0.366,1.66,0.659l0.244-2.404C359.746,172.861,359.039,172.67,358.543,172.572
		L358.543,172.572z M372.637,176.027c0.541,0.765,0.811,1.79,0.811,3.075c0,1.222-0.279,2.197-0.836,2.931
		c-0.557,0.731-1.297,1.098-2.215,1.098c-0.961,0-1.727-0.37-2.295-1.11c-0.57-0.74-0.855-1.737-0.855-2.99
		c0-1.286,0.291-2.299,0.873-3.04c0.582-0.74,1.373-1.11,2.373-1.11C371.379,174.88,372.094,175.262,372.637,176.027
		L372.637,176.027z M363.975,185.426h2.941v-2.551c0.473,0.887,1.096,1.567,1.867,2.039c0.773,0.472,1.652,0.708,2.637,0.708
		c1.596,0,2.898-0.625,3.906-1.874c1.01-1.249,1.516-2.875,1.516-4.877c0-1.953-0.496-3.516-1.484-4.688s-2.301-1.758-3.938-1.758
		c-0.895,0-1.693,0.189-2.398,0.568c-0.703,0.378-1.295,0.929-1.775,1.654v-7.924h-3.271V185.426L363.975,185.426z M379.611,180.177
		c0,1.783,0.387,3.136,1.16,4.06s1.904,1.386,3.393,1.386c1.002,0,1.883-0.222,2.645-0.666c0.76-0.443,1.377-1.096,1.848-1.959
		v2.429h2.98v-12.67h-3.273v5.651c0,1.457-0.254,2.569-0.762,3.339c-0.508,0.769-1.248,1.153-2.215,1.153
		c-0.855,0-1.486-0.276-1.893-0.83c-0.408-0.554-0.611-1.416-0.611-2.587v-6.727h-3.271V180.177L379.611,180.177z M402.598,172.481
		c-0.18-0.021-0.342-0.031-0.488-0.031c-0.846,0-1.582,0.236-2.203,0.708c-0.623,0.472-1.139,1.18-1.545,2.124v-2.526h-2.918v12.67
		h3.248v-5.92c0-1.359,0.281-2.394,0.842-3.106c0.563-0.713,1.379-1.068,2.453-1.068c0.203,0,0.4,0.015,0.586,0.043
		c0.188,0.029,0.367,0.071,0.537,0.128l0.123-2.93C402.988,172.532,402.775,172.501,402.598,172.481L402.598,172.481z
		 M413.242,175.996c0.561,0.729,0.842,1.724,0.842,2.985c0,1.14-0.291,2.068-0.873,2.788c-0.582,0.722-1.32,1.081-2.215,1.081
		c-0.92,0-1.654-0.363-2.205-1.093c-0.549-0.728-0.822-1.707-0.822-2.936c0-1.18,0.273-2.128,0.822-2.845
		c0.551-0.716,1.273-1.073,2.168-1.073C411.918,174.904,412.68,175.268,413.242,175.996L413.242,175.996z M412.484,173.042
		c-0.723-0.41-1.563-0.616-2.514-0.616c-1.619,0-2.934,0.606-3.943,1.819c-1.01,1.212-1.514,2.791-1.514,4.736
		c0,1.921,0.502,3.467,1.508,4.639c1.004,1.172,2.33,1.758,3.973,1.758c0.863,0,1.641-0.192,2.332-0.574
		c0.691-0.383,1.322-0.977,1.893-1.782v1.38c0,1.276-0.369,2.276-1.105,2.997c-0.736,0.72-1.76,1.079-3.07,1.079
		c-0.627,0-1.273-0.087-1.939-0.262c-0.668-0.175-1.34-0.43-2.016-0.763l-0.195,2.624c0.717,0.261,1.447,0.458,2.191,0.592
		s1.496,0.202,2.252,0.202c2.369,0,4.137-0.578,5.305-1.734c1.168-1.154,1.752-2.909,1.752-5.261v-11.12h-3.027v2.172
		C413.836,174.082,413.209,173.453,412.484,173.042L412.484,173.042z"/>
</g>
</svg>
